HIERARCHY
ROOT hip
{
	OFFSET 0.000000 0.000000 0.000000 
	CHANNELS 6 Xposition Yposition Zposition Xrotation Zrotation Yrotation
	JOINT abdomen
	{
		OFFSET 0.000000 3.402643 0.000000 
		CHANNELS 3 Xrotation Zrotation Yrotation
		JOINT chest
		{
			OFFSET 0.000000 8.438565 -0.680529 
			CHANNELS 3 Xrotation Zrotation Yrotation
			JOINT neck
			{
				OFFSET 0.000000 10.207942 -0.272212 
				CHANNELS 3 Xrotation Zrotation Yrotation
				JOINT head
				{
					OFFSET 0.000000 3.130431 0.000000 
					CHANNELS 3 Xrotation Zrotation Yrotation
					End Site
					{
						OFFSET 0.000000 3.130435 0.000000 
					}
				}
			}
			JOINT lCollar
			{
				OFFSET 3.470700 6.669187 -0.816635 
				CHANNELS 3 Yrotation Zrotation Xrotation
				JOINT lShldr
				{
					OFFSET 3.198488 0.000000 0.000000 
					CHANNELS 3 Zrotation Yrotation Xrotation
					JOINT lForeArm
					{
						OFFSET 10.139888 0.000000 0.000000 
						CHANNELS 3 Yrotation Zrotation Xrotation
						JOINT lHand
						{
							OFFSET 8.370511 0.000000 0.000000 
							CHANNELS 3 Zrotation Yrotation Xrotation
							End Site
							{
								OFFSET 4.083176 0.000000 0.000000 
							}
						}
					}
				}
			}
			JOINT rCollar
			{
				OFFSET -3.470700 6.669187 -0.816635 
				CHANNELS 3 Yrotation Zrotation Xrotation
				JOINT rShldr
				{
					OFFSET -3.198488 0.000000 0.000000 
					CHANNELS 3 Zrotation Yrotation Xrotation
					JOINT rForeArm
					{
						OFFSET -10.139888 0.000000 0.000000 
						CHANNELS 3 Yrotation Zrotation Xrotation
						JOINT rHand
						{
							OFFSET -8.370511 0.000000 0.000000 
							CHANNELS 3 Zrotation Yrotation Xrotation
							End Site
							{
								OFFSET -4.083176 0.000000 0.000000 
							}
						}
					}
				}
			}
		}
	}
	JOINT lThigh
	{
		OFFSET 5.308129 -1.633274 1.361059 
		CHANNELS 3 Xrotation Zrotation Yrotation
		JOINT lShin
		{
			OFFSET -2.041588 -20.007561 0.000000 
			CHANNELS 3 Xrotation Zrotation Yrotation
			JOINT lFoot
			{
				OFFSET 0.000000 -19.190928 -1.224953 
				CHANNELS 3 Xrotation Yrotation Zrotation
				End Site
				{
					OFFSET 0.000000 -2.449906 4.627600 
				}
			}
		}
	}
	JOINT rThigh
	{
		OFFSET -5.308129 -1.633274 1.361059 
		CHANNELS 3 Xrotation Zrotation Yrotation
		JOINT rShin
		{
			OFFSET 2.041588 -20.007561 0.000000 
			CHANNELS 3 Xrotation Zrotation Yrotation
			JOINT rFoot
			{
				OFFSET 0.000000 -19.190928 -1.224953 
				CHANNELS 3 Xrotation Yrotation Zrotation
				End Site
				{
					OFFSET 0.000000 -2.449906 4.627600 
				}
			}
		}
	}
}
MOTION
Frames: 16
Frame Time: 0.033333
18.475094 43.468800 -162.445694 -0.204990 17.675674 90.887962 33.971767 5.955967 -6.079478 -20.839844 -0.007467 -0.001337 -21.345909 4.358114 11.707818 -5.806170 -1.925131 0.391980 -6.249050 -0.109138 -0.001707 51.490700 -6.506847 -71.670670 -44.844368 24.439507 -48.210167 -36.445930 11.785183 -39.716759 3.250129 0.108978 -0.003601 51.855061 -33.253731 -28.961409 47.701847 -3.853998 4.763061 7.163800 -20.590349 12.575017 -13.194989 25.469946 37.334934 110.673531 -33.281582 -32.731949 -16.982975 -20.896404 -26.093437 11.462087 1.239984 -1.915959 23.295982 7.140612 -4.814400 -13.168492 1.978655 -9.931720 
18.516449 43.487118 -162.429993 -0.256489 17.851395 90.996384 34.030331 6.058433 -6.327157 -20.839844 -0.007467 -0.001337 -21.230064 4.442870 11.767737 -5.806170 -1.925131 0.391980 -6.249050 -0.109138 -0.001707 51.654484 -6.563549 -71.754204 -44.732567 24.349924 -48.323132 -36.524223 11.756419 -39.843266 3.250129 0.108978 -0.003601 51.865273 -33.214085 -28.930645 47.729599 -3.822295 4.725540 7.159271 -20.589045 12.466332 -12.998423 25.467068 37.254826 110.668472 -33.134586 -32.709476 -16.841967 -21.136938 -25.216988 11.878352 1.307495 -2.027860 22.940020 7.215779 -5.002606 -13.051135 2.112268 -9.861256 
18.570475 43.495502 -162.409576 -0.297890 18.066177 91.002892 34.118275 6.182901 -6.580717 -20.839844 -0.007467 -0.001337 -21.162075 4.523142 11.937644 -5.806170 -1.925131 0.391980 -6.249050 -0.109138 -0.001707 51.748142 -6.591895 -71.763626 -44.718296 24.268625 -48.149380 -36.549133 11.761647 -39.671085 3.250129 0.108978 -0.003601 51.733051 -33.206696 -28.765570 47.745045 -3.662664 4.754781 7.126358 -20.573244 12.294556 -12.657294 25.504414 37.286568 110.719650 -33.027290 -32.796135 -16.650564 -21.481567 -24.301849 12.327688 1.336688 -2.143225 22.652971 7.292303 -5.145819 -12.983938 2.237491 -9.861543 
18.619522 43.489216 -162.391800 -0.308472 18.241940 90.901329 34.215042 6.242879 -6.636045 -20.839844 -0.007467 -0.001337 -21.161770 4.527079 11.982681 -5.806170 -1.925131 0.391980 -6.249050 -0.109138 -0.001707 51.754963 -6.605209 -71.759552 -44.730011 24.263266 -47.965687 -36.483795 11.838331 -39.440861 3.250129 0.108978 -0.003601 51.534950 -33.350647 -28.567154 47.721287 -3.397178 4.826056 7.017719 -20.482616 12.077477 -12.325253 25.573118 37.355030 110.765297 -32.949184 -32.937469 -16.726788 -21.656574 -24.235434 12.541582 1.317346 -2.217509 22.754219 7.338454 -5.193906 -13.233715 2.345278 -10.311465 
18.663757 43.479801 -162.375565 -0.318916 18.329813 90.731804 34.250469 6.216582 -6.513031 -20.839844 -0.007467 -0.001337 -21.113338 4.486337 11.805961 -5.806170 -1.925131 0.391980 -6.249050 -0.109138 -0.001707 51.760578 -6.654266 -71.822044 -44.700863 24.280680 -48.056149 -36.493450 12.017819 -39.573372 3.250129 0.108978 -0.003601 51.409851 -33.601463 -28.427788 47.713120 -3.184075 4.855196 6.956425 -20.371973 11.871537 -12.148763 25.644449 37.375824 110.832870 -32.861229 -33.063599 -17.048334 -21.614222 -25.101112 12.547100 1.347138 -2.192259 23.160141 7.330832 -5.201319 -13.819677 2.539119 -11.531851 
18.700506 43.475605 -162.367706 -0.349818 18.349291 90.546700 34.215401 6.168460 -6.410995 -20.839844 -0.007467 -0.001337 -21.024828 4.397035 11.605706 -5.806170 -1.925131 0.391980 -6.249050 -0.109138 -0.001707 51.683044 -6.642371 -71.810753 -44.699043 24.320345 -48.379997 -36.615719 12.208662 -40.085068 3.250129 0.108978 -0.003601 51.369400 -33.863586 -28.357515 47.835308 -3.039561 4.981425 7.027906 -20.318876 11.818315 -12.110051 25.700521 37.332352 110.814583 -32.753624 -33.046909 -17.347719 -21.425507 -26.202797 12.486327 1.415256 -2.116315 23.525839 7.274461 -5.143433 -14.361528 2.706211 -12.680681 
18.728827 43.482403 -162.370300 -0.349739 18.310230 90.410194 34.194817 6.164522 -6.426587 -20.839844 -0.007467 -0.001337 -21.022964 4.284914 11.508949 -5.806170 -1.925131 0.391980 -6.249050 -0.109138 -0.001707 51.543633 -6.535303 -71.773079 -44.678551 24.399900 -48.804722 -36.727787 12.217333 -40.603420 3.250129 0.108978 -0.003601 51.313023 -34.015804 -28.272320 47.957268 -2.924700 5.174478 7.072319 -20.293064 11.912579 -12.198941 25.697302 37.276779 110.766014 -32.705009 -32.994400 -17.447704 -21.295689 -26.588198 12.476768 1.405664 -2.108927 23.537369 7.231724 -5.111493 -14.441182 2.778857 -12.896239 
18.746939 43.492878 -162.379730 -0.328944 18.193077 90.329071 34.173641 6.205529 -6.480570 -20.839844 -0.007467 -0.001337 -21.158058 4.216727 11.534437 -5.806170 -1.925131 0.391980 -6.249050 -0.109138 -0.001707 51.545319 -6.445176 -71.804298 -44.468750 24.447348 -49.062531 -36.720444 12.172011 -40.687954 3.250129 0.108978 -0.003601 51.225769 -33.987152 -28.198479 47.988464 -2.877565 5.296434 7.008646 -20.382080 12.004144 -12.374518 25.667309 37.274422 110.775978 -32.773399 -32.926701 -17.253214 -21.280998 -25.996368 12.358871 1.317459 -2.143997 23.570356 7.252769 -5.055928 -14.458937 2.789551 -13.000460 
18.753536 43.508060 -162.391251 -0.297708 17.958757 90.300293 34.123447 6.244126 -6.526961 -20.839844 -0.007467 -0.001337 -21.441833 4.222751 11.557940 -5.806170 -1.925131 0.391980 -6.249050 -0.109138 -0.001707 51.671276 -6.372783 -71.832680 -44.323975 24.426311 -48.905418 -36.615662 12.311146 -40.378063 3.250129 0.108978 -0.003601 51.134705 -33.893745 -28.164925 47.917488 -2.864556 5.325994 6.875937 -20.492062 12.058608 -12.656675 25.574259 37.245396 110.798538 -32.870922 -32.742916 -16.911808 -21.214188 -24.935364 12.089213 1.239703 -2.140428 23.625530 7.270798 -5.016915 -14.510114 2.774472 -13.206820 
18.769136 43.523251 -162.403824 -0.276797 17.714651 90.317192 34.072845 6.206592 -6.533012 -20.839844 -0.007467 -0.001337 -21.710733 4.370371 11.479240 -5.806170 -1.925131 0.391980 -6.249050 -0.109138 -0.001707 51.791622 -6.300535 -71.799553 -44.480465 24.461084 -48.656055 -36.618519 12.581052 -40.244961 3.250129 0.108978 -0.003601 51.082306 -33.792122 -28.114012 47.659729 -2.817897 5.281995 6.680658 -20.455734 12.002604 -12.941316 25.439770 37.177940 110.806686 -32.959637 -32.558510 -16.665915 -21.096886 -24.047480 11.904506 1.219400 -2.149045 23.421167 7.227683 -4.998286 -14.248934 2.657060 -12.671221 
18.816668 43.522724 -162.414291 -0.276646 17.616997 90.425049 34.106724 6.132456 -6.581059 -20.839844 -0.007467 -0.001337 -21.787792 4.633615 11.349765 -5.806170 -1.925131 0.391980 -6.249050 -0.109138 -0.001707 51.873005 -6.283770 -71.788315 -44.724823 24.510216 -48.602806 -36.680565 12.704968 -40.412453 3.250129 0.108978 -0.003601 51.086147 -33.674519 -28.091696 47.350208 -2.804806 5.115376 6.522757 -20.418667 11.834091 -12.969332 25.348745 37.157387 110.819427 -33.007816 -32.588673 -16.534199 -21.213570 -23.494898 11.961352 1.220338 -2.252980 23.181236 7.175343 -5.063343 -13.888417 2.610330 -11.681965 
18.879436 43.510677 -162.416901 -0.256196 17.646318 90.587090 34.187111 6.130475 -6.714490 -20.839844 -0.007467 -0.001337 -21.784988 4.836493 11.241891 -5.806170 -1.925131 0.391980 -6.249050 -0.109138 -0.001707 51.912277 -6.361829 -71.853699 -44.820366 24.538977 -48.573090 -36.591560 12.697775 -40.449902 3.250129 0.108978 -0.003601 51.079266 -33.659431 -28.073097 47.142738 -2.765707 5.061459 6.440610 -20.404436 11.752601 -12.764406 25.318903 37.176197 110.804649 -33.017902 -32.731121 -16.411713 -21.558882 -23.047216 12.088895 1.220434 -2.380639 23.150394 7.155241 -5.186798 -13.806625 2.639866 -11.195094 
18.927908 43.505444 -162.413239 -0.235777 17.704939 90.700203 34.232582 6.171402 -6.797876 -20.839844 -0.007467 -0.001337 -21.807709 4.913610 11.162151 -5.806170 -1.925131 0.391980 -6.249050 -0.109138 -0.001707 51.910854 -6.519432 -71.973900 -44.782459 24.521643 -48.472202 -36.560543 12.664817 -40.250523 3.250129 0.108978 -0.003601 51.051262 -33.758514 -28.055212 47.047203 -2.724413 5.167609 6.484243 -20.300480 11.864336 -12.589039 25.326342 37.217308 110.821190 -32.999043 -32.798477 -16.323687 -21.711195 -22.783976 12.194642 1.249311 -2.376776 23.203897 7.157130 -5.258108 -13.872600 2.545619 -11.234207 
18.961885 43.504406 -162.408524 -0.235777 17.704939 90.709976 34.164036 6.147202 -6.784796 -20.839844 -0.007467 -0.001337 -21.788198 4.908228 11.138106 -5.806170 -1.925131 0.391980 -6.249050 -0.109138 -0.001707 51.978348 -6.762787 -72.168617 -44.612000 24.446205 -48.400822 -36.771648 12.655538 -40.046013 3.250129 0.108978 -0.003601 51.170017 -33.849777 -28.184864 47.063419 -2.837291 5.232009 6.661588 -20.207846 12.096445 -12.560095 25.384577 37.220562 110.787903 -32.959042 -32.730473 -16.397814 -21.557430 -23.356667 12.194877 1.308317 -2.179072 23.256390 7.150010 -5.225011 -13.954961 2.372086 -11.490384 
18.991564 43.498112 -162.402252 -0.235675 17.626812 90.680977 33.957287 6.058221 -6.756196 -20.839844 -0.007467 -0.001337 -21.659037 4.864591 11.185869 -5.806170 -1.925131 0.391980 -6.249050 -0.109138 -0.001707 52.120823 -7.064467 -72.435837 -44.322548 24.308041 -48.339558 -37.035149 12.722589 -39.844948 3.250129 0.108978 -0.003601 51.378563 -33.925053 -28.378378 47.140343 -3.027291 5.151485 6.802488 -20.162586 12.207405 -12.686705 25.414438 37.167267 110.715874 -32.909969 -32.652344 -16.492451 -21.322077 -24.380587 12.057671 1.366817 -1.993013 23.393444 7.130726 -5.156021 -14.120553 2.220552 -11.780932 
19.017740 43.496021 -162.395966 -0.215088 17.548712 90.667641 33.787609 5.973333 -6.768242 -20.839844 -0.007467 -0.001337 -21.471178 4.829580 11.252791 -5.806170 -1.925131 0.391980 -6.249050 -0.109138 -0.001707 52.292381 -7.300853 -72.653358 -44.009480 24.142143 -48.321396 -37.195694 12.822389 -39.720287 3.250129 0.108978 -0.003601 51.527386 -34.019848 -28.440121 47.217617 -3.044473 4.941979 6.779899 -20.134214 11.936763 -12.842048 25.400763 37.062031 110.678406 -32.858524 -32.604603 -16.587763 -21.121416 -25.243391 11.918936 1.405253 -1.899432 23.594082 7.108251 -5.119512 -14.396419 2.200601 -12.322760 
